<mxfile host="app.diagrams.net" agent="Mozilla/5.0 (Windows NT 10.0; Win64; x64) AppleWebKit/537.36 (KHTML, like Gecko) Chrome/129.0.0.0 Safari/537.36" version="24.7.17">
  <diagram id="R2lEEEUBdFMjLlhIrx00" name="Page-1">
    <mxGraphModel dx="1306" dy="514" grid="1" gridSize="10" guides="1" tooltips="1" connect="1" arrows="1" fold="1" page="1" pageScale="1" pageWidth="850" pageHeight="1100" math="0" shadow="0" extFonts="Permanent Marker^https://fonts.googleapis.com/css?family=Permanent+Marker">
      <root>
        <mxCell id="0" />
        <mxCell id="1" parent="0" />
        <mxCell id="9iKVfSicNsRhDYt_rUcl-1" value="Flyer Table" style="shape=table;startSize=25;container=1;collapsible=0;childLayout=tableLayout;fixedRows=1;rowLines=1;fontStyle=1;align=center;resizeLast=1;" vertex="1" parent="1">
          <mxGeometry x="200" y="170" width="140" height="141" as="geometry" />
        </mxCell>
        <mxCell id="9iKVfSicNsRhDYt_rUcl-2" style="shape=tableRow;horizontal=0;startSize=0;swimlaneHead=0;swimlaneBody=0;fillColor=none;collapsible=0;dropTarget=0;points=[[0,0.5],[1,0.5]];portConstraint=eastwest;top=0;left=0;right=0;bottom=0;" vertex="1" parent="9iKVfSicNsRhDYt_rUcl-1">
          <mxGeometry y="25" width="140" height="20" as="geometry" />
        </mxCell>
        <mxCell id="9iKVfSicNsRhDYt_rUcl-3" value="PK" style="shape=partialRectangle;connectable=0;fillColor=none;top=0;left=0;bottom=0;right=0;align=left;spacingLeft=2;overflow=hidden;fontSize=11;" vertex="1" parent="9iKVfSicNsRhDYt_rUcl-2">
          <mxGeometry width="36" height="20" as="geometry">
            <mxRectangle width="36" height="20" as="alternateBounds" />
          </mxGeometry>
        </mxCell>
        <mxCell id="9iKVfSicNsRhDYt_rUcl-4" value="Flyer_id" style="shape=partialRectangle;connectable=0;fillColor=none;top=0;left=0;bottom=0;right=0;align=left;spacingLeft=2;overflow=hidden;fontSize=11;" vertex="1" parent="9iKVfSicNsRhDYt_rUcl-2">
          <mxGeometry x="36" width="104" height="20" as="geometry">
            <mxRectangle width="104" height="20" as="alternateBounds" />
          </mxGeometry>
        </mxCell>
        <mxCell id="9iKVfSicNsRhDYt_rUcl-5" style="shape=tableRow;horizontal=0;startSize=0;swimlaneHead=0;swimlaneBody=0;fillColor=none;collapsible=0;dropTarget=0;points=[[0,0.5],[1,0.5]];portConstraint=eastwest;top=0;left=0;right=0;bottom=0;" vertex="1" parent="9iKVfSicNsRhDYt_rUcl-1">
          <mxGeometry y="45" width="140" height="22" as="geometry" />
        </mxCell>
        <mxCell id="9iKVfSicNsRhDYt_rUcl-6" value="FK" style="shape=partialRectangle;connectable=0;fillColor=none;top=0;left=0;bottom=0;right=0;align=left;spacingLeft=2;overflow=hidden;fontSize=11;" vertex="1" parent="9iKVfSicNsRhDYt_rUcl-5">
          <mxGeometry width="36" height="22" as="geometry">
            <mxRectangle width="36" height="22" as="alternateBounds" />
          </mxGeometry>
        </mxCell>
        <mxCell id="9iKVfSicNsRhDYt_rUcl-7" value="store_id" style="shape=partialRectangle;connectable=0;fillColor=none;top=0;left=0;bottom=0;right=0;align=left;spacingLeft=2;overflow=hidden;fontSize=11;" vertex="1" parent="9iKVfSicNsRhDYt_rUcl-5">
          <mxGeometry x="36" width="104" height="22" as="geometry">
            <mxRectangle width="104" height="22" as="alternateBounds" />
          </mxGeometry>
        </mxCell>
        <mxCell id="9iKVfSicNsRhDYt_rUcl-8" style="shape=tableRow;horizontal=0;startSize=0;swimlaneHead=0;swimlaneBody=0;fillColor=none;collapsible=0;dropTarget=0;points=[[0,0.5],[1,0.5]];portConstraint=eastwest;top=0;left=0;right=0;bottom=0;" vertex="1" parent="9iKVfSicNsRhDYt_rUcl-1">
          <mxGeometry y="67" width="140" height="22" as="geometry" />
        </mxCell>
        <mxCell id="9iKVfSicNsRhDYt_rUcl-9" value="" style="shape=partialRectangle;connectable=0;fillColor=none;top=0;left=0;bottom=0;right=0;align=left;spacingLeft=2;overflow=hidden;fontSize=11;" vertex="1" parent="9iKVfSicNsRhDYt_rUcl-8">
          <mxGeometry width="36" height="22" as="geometry">
            <mxRectangle width="36" height="22" as="alternateBounds" />
          </mxGeometry>
        </mxCell>
        <mxCell id="9iKVfSicNsRhDYt_rUcl-10" value="Flyer_Start_Date" style="shape=partialRectangle;connectable=0;fillColor=none;top=0;left=0;bottom=0;right=0;align=left;spacingLeft=2;overflow=hidden;fontSize=11;" vertex="1" parent="9iKVfSicNsRhDYt_rUcl-8">
          <mxGeometry x="36" width="104" height="22" as="geometry">
            <mxRectangle width="104" height="22" as="alternateBounds" />
          </mxGeometry>
        </mxCell>
        <mxCell id="9iKVfSicNsRhDYt_rUcl-11" style="shape=tableRow;horizontal=0;startSize=0;swimlaneHead=0;swimlaneBody=0;fillColor=none;collapsible=0;dropTarget=0;points=[[0,0.5],[1,0.5]];portConstraint=eastwest;top=0;left=0;right=0;bottom=0;" vertex="1" parent="9iKVfSicNsRhDYt_rUcl-1">
          <mxGeometry y="89" width="140" height="22" as="geometry" />
        </mxCell>
        <mxCell id="9iKVfSicNsRhDYt_rUcl-12" value="&#xa;          " style="shape=partialRectangle;connectable=0;fillColor=none;top=0;left=0;bottom=0;right=0;align=left;spacingLeft=2;overflow=hidden;fontSize=11;" vertex="1" parent="9iKVfSicNsRhDYt_rUcl-11">
          <mxGeometry width="36" height="22" as="geometry">
            <mxRectangle width="36" height="22" as="alternateBounds" />
          </mxGeometry>
        </mxCell>
        <mxCell id="9iKVfSicNsRhDYt_rUcl-13" value="Flyer_End_Date" style="shape=partialRectangle;connectable=0;fillColor=none;top=0;left=0;bottom=0;right=0;align=left;spacingLeft=2;overflow=hidden;fontSize=11;" vertex="1" parent="9iKVfSicNsRhDYt_rUcl-11">
          <mxGeometry x="36" width="104" height="22" as="geometry">
            <mxRectangle width="104" height="22" as="alternateBounds" />
          </mxGeometry>
        </mxCell>
        <mxCell id="9iKVfSicNsRhDYt_rUcl-27" value="" style="shape=tableRow;horizontal=0;startSize=0;swimlaneHead=0;swimlaneBody=0;fillColor=none;collapsible=0;dropTarget=0;points=[[0,0.5],[1,0.5]];portConstraint=eastwest;top=0;left=0;right=0;bottom=0;" vertex="1" parent="9iKVfSicNsRhDYt_rUcl-1">
          <mxGeometry y="111" width="140" height="30" as="geometry" />
        </mxCell>
        <mxCell id="9iKVfSicNsRhDYt_rUcl-28" value="" style="shape=partialRectangle;connectable=0;fillColor=none;top=0;left=0;bottom=0;right=0;editable=1;overflow=hidden;" vertex="1" parent="9iKVfSicNsRhDYt_rUcl-27">
          <mxGeometry width="36" height="30" as="geometry">
            <mxRectangle width="36" height="30" as="alternateBounds" />
          </mxGeometry>
        </mxCell>
        <mxCell id="9iKVfSicNsRhDYt_rUcl-29" value="Flyer_Name" style="shape=partialRectangle;connectable=0;fillColor=none;top=0;left=0;bottom=0;right=0;align=left;spacingLeft=6;overflow=hidden;" vertex="1" parent="9iKVfSicNsRhDYt_rUcl-27">
          <mxGeometry x="36" width="104" height="30" as="geometry">
            <mxRectangle width="104" height="30" as="alternateBounds" />
          </mxGeometry>
        </mxCell>
        <mxCell id="9iKVfSicNsRhDYt_rUcl-30" value="Admin Table" style="shape=table;startSize=25;container=1;collapsible=0;childLayout=tableLayout;fixedRows=1;rowLines=1;fontStyle=1;align=center;resizeLast=1;" vertex="1" parent="1">
          <mxGeometry x="420" y="180" width="123" height="139" as="geometry" />
        </mxCell>
        <mxCell id="9iKVfSicNsRhDYt_rUcl-31" style="shape=tableRow;horizontal=0;startSize=0;swimlaneHead=0;swimlaneBody=0;fillColor=none;collapsible=0;dropTarget=0;points=[[0,0.5],[1,0.5]];portConstraint=eastwest;top=0;left=0;right=0;bottom=0;" vertex="1" parent="9iKVfSicNsRhDYt_rUcl-30">
          <mxGeometry y="25" width="123" height="20" as="geometry" />
        </mxCell>
        <mxCell id="9iKVfSicNsRhDYt_rUcl-32" value="PK" style="shape=partialRectangle;connectable=0;fillColor=none;top=0;left=0;bottom=0;right=0;align=left;spacingLeft=2;overflow=hidden;fontSize=11;" vertex="1" parent="9iKVfSicNsRhDYt_rUcl-31">
          <mxGeometry width="36" height="20" as="geometry">
            <mxRectangle width="36" height="20" as="alternateBounds" />
          </mxGeometry>
        </mxCell>
        <mxCell id="9iKVfSicNsRhDYt_rUcl-33" value="Admin_ID" style="shape=partialRectangle;connectable=0;fillColor=none;top=0;left=0;bottom=0;right=0;align=left;spacingLeft=2;overflow=hidden;fontSize=11;" vertex="1" parent="9iKVfSicNsRhDYt_rUcl-31">
          <mxGeometry x="36" width="87" height="20" as="geometry">
            <mxRectangle width="87" height="20" as="alternateBounds" />
          </mxGeometry>
        </mxCell>
        <mxCell id="9iKVfSicNsRhDYt_rUcl-34" style="shape=tableRow;horizontal=0;startSize=0;swimlaneHead=0;swimlaneBody=0;fillColor=none;collapsible=0;dropTarget=0;points=[[0,0.5],[1,0.5]];portConstraint=eastwest;top=0;left=0;right=0;bottom=0;" vertex="1" parent="9iKVfSicNsRhDYt_rUcl-30">
          <mxGeometry y="45" width="123" height="20" as="geometry" />
        </mxCell>
        <mxCell id="9iKVfSicNsRhDYt_rUcl-35" value="" style="shape=partialRectangle;connectable=0;fillColor=none;top=0;left=0;bottom=0;right=0;align=left;spacingLeft=2;overflow=hidden;fontSize=11;" vertex="1" parent="9iKVfSicNsRhDYt_rUcl-34">
          <mxGeometry width="36" height="20" as="geometry">
            <mxRectangle width="36" height="20" as="alternateBounds" />
          </mxGeometry>
        </mxCell>
        <mxCell id="9iKVfSicNsRhDYt_rUcl-36" value="Admin_Name" style="shape=partialRectangle;connectable=0;fillColor=none;top=0;left=0;bottom=0;right=0;align=left;spacingLeft=2;overflow=hidden;fontSize=11;" vertex="1" parent="9iKVfSicNsRhDYt_rUcl-34">
          <mxGeometry x="36" width="87" height="20" as="geometry">
            <mxRectangle width="87" height="20" as="alternateBounds" />
          </mxGeometry>
        </mxCell>
        <mxCell id="9iKVfSicNsRhDYt_rUcl-37" style="shape=tableRow;horizontal=0;startSize=0;swimlaneHead=0;swimlaneBody=0;fillColor=none;collapsible=0;dropTarget=0;points=[[0,0.5],[1,0.5]];portConstraint=eastwest;top=0;left=0;right=0;bottom=0;" vertex="1" parent="9iKVfSicNsRhDYt_rUcl-30">
          <mxGeometry y="65" width="123" height="22" as="geometry" />
        </mxCell>
        <mxCell id="9iKVfSicNsRhDYt_rUcl-38" value="" style="shape=partialRectangle;connectable=0;fillColor=none;top=0;left=0;bottom=0;right=0;align=left;spacingLeft=2;overflow=hidden;fontSize=11;" vertex="1" parent="9iKVfSicNsRhDYt_rUcl-37">
          <mxGeometry width="36" height="22" as="geometry">
            <mxRectangle width="36" height="22" as="alternateBounds" />
          </mxGeometry>
        </mxCell>
        <mxCell id="9iKVfSicNsRhDYt_rUcl-39" value="Email" style="shape=partialRectangle;connectable=0;fillColor=none;top=0;left=0;bottom=0;right=0;align=left;spacingLeft=2;overflow=hidden;fontSize=11;" vertex="1" parent="9iKVfSicNsRhDYt_rUcl-37">
          <mxGeometry x="36" width="87" height="22" as="geometry">
            <mxRectangle width="87" height="22" as="alternateBounds" />
          </mxGeometry>
        </mxCell>
        <mxCell id="9iKVfSicNsRhDYt_rUcl-40" style="shape=tableRow;horizontal=0;startSize=0;swimlaneHead=0;swimlaneBody=0;fillColor=none;collapsible=0;dropTarget=0;points=[[0,0.5],[1,0.5]];portConstraint=eastwest;top=0;left=0;right=0;bottom=0;" vertex="1" parent="9iKVfSicNsRhDYt_rUcl-30">
          <mxGeometry y="87" width="123" height="22" as="geometry" />
        </mxCell>
        <mxCell id="9iKVfSicNsRhDYt_rUcl-41" value="&#xa;          " style="shape=partialRectangle;connectable=0;fillColor=none;top=0;left=0;bottom=0;right=0;align=left;spacingLeft=2;overflow=hidden;fontSize=11;" vertex="1" parent="9iKVfSicNsRhDYt_rUcl-40">
          <mxGeometry width="36" height="22" as="geometry">
            <mxRectangle width="36" height="22" as="alternateBounds" />
          </mxGeometry>
        </mxCell>
        <mxCell id="9iKVfSicNsRhDYt_rUcl-42" value="Password" style="shape=partialRectangle;connectable=0;fillColor=none;top=0;left=0;bottom=0;right=0;align=left;spacingLeft=2;overflow=hidden;fontSize=11;" vertex="1" parent="9iKVfSicNsRhDYt_rUcl-40">
          <mxGeometry x="36" width="87" height="22" as="geometry">
            <mxRectangle width="87" height="22" as="alternateBounds" />
          </mxGeometry>
        </mxCell>
        <mxCell id="9iKVfSicNsRhDYt_rUcl-43" value="" style="shape=tableRow;horizontal=0;startSize=0;swimlaneHead=0;swimlaneBody=0;fillColor=none;collapsible=0;dropTarget=0;points=[[0,0.5],[1,0.5]];portConstraint=eastwest;top=0;left=0;right=0;bottom=0;" vertex="1" parent="9iKVfSicNsRhDYt_rUcl-30">
          <mxGeometry y="109" width="123" height="30" as="geometry" />
        </mxCell>
        <mxCell id="9iKVfSicNsRhDYt_rUcl-44" value="" style="shape=partialRectangle;connectable=0;fillColor=none;top=0;left=0;bottom=0;right=0;editable=1;overflow=hidden;" vertex="1" parent="9iKVfSicNsRhDYt_rUcl-43">
          <mxGeometry width="36" height="30" as="geometry">
            <mxRectangle width="36" height="30" as="alternateBounds" />
          </mxGeometry>
        </mxCell>
        <mxCell id="9iKVfSicNsRhDYt_rUcl-45" value="Store_Name" style="shape=partialRectangle;connectable=0;fillColor=none;top=0;left=0;bottom=0;right=0;align=left;spacingLeft=6;overflow=hidden;" vertex="1" parent="9iKVfSicNsRhDYt_rUcl-43">
          <mxGeometry x="36" width="87" height="30" as="geometry">
            <mxRectangle width="87" height="30" as="alternateBounds" />
          </mxGeometry>
        </mxCell>
        <mxCell id="9iKVfSicNsRhDYt_rUcl-46" value="Notification Table" style="shape=table;startSize=25;container=1;collapsible=0;childLayout=tableLayout;fixedRows=1;rowLines=1;fontStyle=1;align=center;resizeLast=1;" vertex="1" parent="1">
          <mxGeometry x="310" y="390" width="160" height="170" as="geometry" />
        </mxCell>
        <mxCell id="9iKVfSicNsRhDYt_rUcl-47" style="shape=tableRow;horizontal=0;startSize=0;swimlaneHead=0;swimlaneBody=0;fillColor=none;collapsible=0;dropTarget=0;points=[[0,0.5],[1,0.5]];portConstraint=eastwest;top=0;left=0;right=0;bottom=0;" vertex="1" parent="9iKVfSicNsRhDYt_rUcl-46">
          <mxGeometry y="25" width="160" height="20" as="geometry" />
        </mxCell>
        <mxCell id="9iKVfSicNsRhDYt_rUcl-48" value="PK" style="shape=partialRectangle;connectable=0;fillColor=none;top=0;left=0;bottom=0;right=0;align=left;spacingLeft=2;overflow=hidden;fontSize=11;" vertex="1" parent="9iKVfSicNsRhDYt_rUcl-47">
          <mxGeometry width="36" height="20" as="geometry">
            <mxRectangle width="36" height="20" as="alternateBounds" />
          </mxGeometry>
        </mxCell>
        <mxCell id="9iKVfSicNsRhDYt_rUcl-49" value="Notification_ID" style="shape=partialRectangle;connectable=0;fillColor=none;top=0;left=0;bottom=0;right=0;align=left;spacingLeft=2;overflow=hidden;fontSize=11;" vertex="1" parent="9iKVfSicNsRhDYt_rUcl-47">
          <mxGeometry x="36" width="124" height="20" as="geometry">
            <mxRectangle width="124" height="20" as="alternateBounds" />
          </mxGeometry>
        </mxCell>
        <mxCell id="9iKVfSicNsRhDYt_rUcl-50" style="shape=tableRow;horizontal=0;startSize=0;swimlaneHead=0;swimlaneBody=0;fillColor=none;collapsible=0;dropTarget=0;points=[[0,0.5],[1,0.5]];portConstraint=eastwest;top=0;left=0;right=0;bottom=0;" vertex="1" parent="9iKVfSicNsRhDYt_rUcl-46">
          <mxGeometry y="45" width="160" height="20" as="geometry" />
        </mxCell>
        <mxCell id="9iKVfSicNsRhDYt_rUcl-51" value="FK" style="shape=partialRectangle;connectable=0;fillColor=none;top=0;left=0;bottom=0;right=0;align=left;spacingLeft=2;overflow=hidden;fontSize=11;" vertex="1" parent="9iKVfSicNsRhDYt_rUcl-50">
          <mxGeometry width="36" height="20" as="geometry">
            <mxRectangle width="36" height="20" as="alternateBounds" />
          </mxGeometry>
        </mxCell>
        <mxCell id="9iKVfSicNsRhDYt_rUcl-52" value="User_ID" style="shape=partialRectangle;connectable=0;fillColor=none;top=0;left=0;bottom=0;right=0;align=left;spacingLeft=2;overflow=hidden;fontSize=11;" vertex="1" parent="9iKVfSicNsRhDYt_rUcl-50">
          <mxGeometry x="36" width="124" height="20" as="geometry">
            <mxRectangle width="124" height="20" as="alternateBounds" />
          </mxGeometry>
        </mxCell>
        <mxCell id="9iKVfSicNsRhDYt_rUcl-53" style="shape=tableRow;horizontal=0;startSize=0;swimlaneHead=0;swimlaneBody=0;fillColor=none;collapsible=0;dropTarget=0;points=[[0,0.5],[1,0.5]];portConstraint=eastwest;top=0;left=0;right=0;bottom=0;" vertex="1" parent="9iKVfSicNsRhDYt_rUcl-46">
          <mxGeometry y="65" width="160" height="22" as="geometry" />
        </mxCell>
        <mxCell id="9iKVfSicNsRhDYt_rUcl-54" value="" style="shape=partialRectangle;connectable=0;fillColor=none;top=0;left=0;bottom=0;right=0;align=left;spacingLeft=2;overflow=hidden;fontSize=11;" vertex="1" parent="9iKVfSicNsRhDYt_rUcl-53">
          <mxGeometry width="36" height="22" as="geometry">
            <mxRectangle width="36" height="22" as="alternateBounds" />
          </mxGeometry>
        </mxCell>
        <mxCell id="9iKVfSicNsRhDYt_rUcl-55" value="Notification_type" style="shape=partialRectangle;connectable=0;fillColor=none;top=0;left=0;bottom=0;right=0;align=left;spacingLeft=2;overflow=hidden;fontSize=11;" vertex="1" parent="9iKVfSicNsRhDYt_rUcl-53">
          <mxGeometry x="36" width="124" height="22" as="geometry">
            <mxRectangle width="124" height="22" as="alternateBounds" />
          </mxGeometry>
        </mxCell>
        <mxCell id="9iKVfSicNsRhDYt_rUcl-56" style="shape=tableRow;horizontal=0;startSize=0;swimlaneHead=0;swimlaneBody=0;fillColor=none;collapsible=0;dropTarget=0;points=[[0,0.5],[1,0.5]];portConstraint=eastwest;top=0;left=0;right=0;bottom=0;" vertex="1" parent="9iKVfSicNsRhDYt_rUcl-46">
          <mxGeometry y="87" width="160" height="22" as="geometry" />
        </mxCell>
        <mxCell id="9iKVfSicNsRhDYt_rUcl-57" value="&#xa;          " style="shape=partialRectangle;connectable=0;fillColor=none;top=0;left=0;bottom=0;right=0;align=left;spacingLeft=2;overflow=hidden;fontSize=11;" vertex="1" parent="9iKVfSicNsRhDYt_rUcl-56">
          <mxGeometry width="36" height="22" as="geometry">
            <mxRectangle width="36" height="22" as="alternateBounds" />
          </mxGeometry>
        </mxCell>
        <mxCell id="9iKVfSicNsRhDYt_rUcl-58" value="Notification_content" style="shape=partialRectangle;connectable=0;fillColor=none;top=0;left=0;bottom=0;right=0;align=left;spacingLeft=2;overflow=hidden;fontSize=11;" vertex="1" parent="9iKVfSicNsRhDYt_rUcl-56">
          <mxGeometry x="36" width="124" height="22" as="geometry">
            <mxRectangle width="124" height="22" as="alternateBounds" />
          </mxGeometry>
        </mxCell>
        <mxCell id="9iKVfSicNsRhDYt_rUcl-59" value="" style="shape=tableRow;horizontal=0;startSize=0;swimlaneHead=0;swimlaneBody=0;fillColor=none;collapsible=0;dropTarget=0;points=[[0,0.5],[1,0.5]];portConstraint=eastwest;top=0;left=0;right=0;bottom=0;" vertex="1" parent="9iKVfSicNsRhDYt_rUcl-46">
          <mxGeometry y="109" width="160" height="30" as="geometry" />
        </mxCell>
        <mxCell id="9iKVfSicNsRhDYt_rUcl-60" value="" style="shape=partialRectangle;connectable=0;fillColor=none;top=0;left=0;bottom=0;right=0;editable=1;overflow=hidden;" vertex="1" parent="9iKVfSicNsRhDYt_rUcl-59">
          <mxGeometry width="36" height="30" as="geometry">
            <mxRectangle width="36" height="30" as="alternateBounds" />
          </mxGeometry>
        </mxCell>
        <mxCell id="9iKVfSicNsRhDYt_rUcl-61" value="Date_sent" style="shape=partialRectangle;connectable=0;fillColor=none;top=0;left=0;bottom=0;right=0;align=left;spacingLeft=6;overflow=hidden;" vertex="1" parent="9iKVfSicNsRhDYt_rUcl-59">
          <mxGeometry x="36" width="124" height="30" as="geometry">
            <mxRectangle width="124" height="30" as="alternateBounds" />
          </mxGeometry>
        </mxCell>
        <mxCell id="9iKVfSicNsRhDYt_rUcl-69" value="" style="shape=tableRow;horizontal=0;startSize=0;swimlaneHead=0;swimlaneBody=0;fillColor=none;collapsible=0;dropTarget=0;points=[[0,0.5],[1,0.5]];portConstraint=eastwest;top=0;left=0;right=0;bottom=0;" vertex="1" parent="9iKVfSicNsRhDYt_rUcl-46">
          <mxGeometry y="139" width="160" height="30" as="geometry" />
        </mxCell>
        <mxCell id="9iKVfSicNsRhDYt_rUcl-70" value="" style="shape=partialRectangle;connectable=0;fillColor=none;top=0;left=0;bottom=0;right=0;editable=1;overflow=hidden;" vertex="1" parent="9iKVfSicNsRhDYt_rUcl-69">
          <mxGeometry width="36" height="30" as="geometry">
            <mxRectangle width="36" height="30" as="alternateBounds" />
          </mxGeometry>
        </mxCell>
        <mxCell id="9iKVfSicNsRhDYt_rUcl-71" value="Is_Read" style="shape=partialRectangle;connectable=0;fillColor=none;top=0;left=0;bottom=0;right=0;align=left;spacingLeft=6;overflow=hidden;" vertex="1" parent="9iKVfSicNsRhDYt_rUcl-69">
          <mxGeometry x="36" width="124" height="30" as="geometry">
            <mxRectangle width="124" height="30" as="alternateBounds" />
          </mxGeometry>
        </mxCell>
        <mxCell id="9iKVfSicNsRhDYt_rUcl-72" value="Category_Table" style="shape=table;startSize=25;container=1;collapsible=0;childLayout=tableLayout;fixedRows=1;rowLines=1;fontStyle=1;align=center;resizeLast=1;" vertex="1" parent="1">
          <mxGeometry x="510" y="400" width="123" height="88" as="geometry" />
        </mxCell>
        <mxCell id="9iKVfSicNsRhDYt_rUcl-73" style="shape=tableRow;horizontal=0;startSize=0;swimlaneHead=0;swimlaneBody=0;fillColor=none;collapsible=0;dropTarget=0;points=[[0,0.5],[1,0.5]];portConstraint=eastwest;top=0;left=0;right=0;bottom=0;" vertex="1" parent="9iKVfSicNsRhDYt_rUcl-72">
          <mxGeometry y="25" width="123" height="20" as="geometry" />
        </mxCell>
        <mxCell id="9iKVfSicNsRhDYt_rUcl-74" value="PK" style="shape=partialRectangle;connectable=0;fillColor=none;top=0;left=0;bottom=0;right=0;align=left;spacingLeft=2;overflow=hidden;fontSize=11;" vertex="1" parent="9iKVfSicNsRhDYt_rUcl-73">
          <mxGeometry width="36" height="20" as="geometry">
            <mxRectangle width="36" height="20" as="alternateBounds" />
          </mxGeometry>
        </mxCell>
        <mxCell id="9iKVfSicNsRhDYt_rUcl-75" value="Category_ID" style="shape=partialRectangle;connectable=0;fillColor=none;top=0;left=0;bottom=0;right=0;align=left;spacingLeft=2;overflow=hidden;fontSize=11;" vertex="1" parent="9iKVfSicNsRhDYt_rUcl-73">
          <mxGeometry x="36" width="87" height="20" as="geometry">
            <mxRectangle width="87" height="20" as="alternateBounds" />
          </mxGeometry>
        </mxCell>
        <mxCell id="9iKVfSicNsRhDYt_rUcl-76" style="shape=tableRow;horizontal=0;startSize=0;swimlaneHead=0;swimlaneBody=0;fillColor=none;collapsible=0;dropTarget=0;points=[[0,0.5],[1,0.5]];portConstraint=eastwest;top=0;left=0;right=0;bottom=0;" vertex="1" parent="9iKVfSicNsRhDYt_rUcl-72">
          <mxGeometry y="45" width="123" height="20" as="geometry" />
        </mxCell>
        <mxCell id="9iKVfSicNsRhDYt_rUcl-77" value="FK" style="shape=partialRectangle;connectable=0;fillColor=none;top=0;left=0;bottom=0;right=0;align=left;spacingLeft=2;overflow=hidden;fontSize=11;" vertex="1" parent="9iKVfSicNsRhDYt_rUcl-76">
          <mxGeometry width="36" height="20" as="geometry">
            <mxRectangle width="36" height="20" as="alternateBounds" />
          </mxGeometry>
        </mxCell>
        <mxCell id="9iKVfSicNsRhDYt_rUcl-78" value="Category_Name" style="shape=partialRectangle;connectable=0;fillColor=none;top=0;left=0;bottom=0;right=0;align=left;spacingLeft=2;overflow=hidden;fontSize=11;" vertex="1" parent="9iKVfSicNsRhDYt_rUcl-76">
          <mxGeometry x="36" width="87" height="20" as="geometry">
            <mxRectangle width="87" height="20" as="alternateBounds" />
          </mxGeometry>
        </mxCell>
        <mxCell id="9iKVfSicNsRhDYt_rUcl-79" style="shape=tableRow;horizontal=0;startSize=0;swimlaneHead=0;swimlaneBody=0;fillColor=none;collapsible=0;dropTarget=0;points=[[0,0.5],[1,0.5]];portConstraint=eastwest;top=0;left=0;right=0;bottom=0;" vertex="1" parent="9iKVfSicNsRhDYt_rUcl-72">
          <mxGeometry y="65" width="123" height="22" as="geometry" />
        </mxCell>
        <mxCell id="9iKVfSicNsRhDYt_rUcl-80" value="" style="shape=partialRectangle;connectable=0;fillColor=none;top=0;left=0;bottom=0;right=0;align=left;spacingLeft=2;overflow=hidden;fontSize=11;" vertex="1" parent="9iKVfSicNsRhDYt_rUcl-79">
          <mxGeometry width="36" height="22" as="geometry">
            <mxRectangle width="36" height="22" as="alternateBounds" />
          </mxGeometry>
        </mxCell>
        <mxCell id="9iKVfSicNsRhDYt_rUcl-81" value="Description" style="shape=partialRectangle;connectable=0;fillColor=none;top=0;left=0;bottom=0;right=0;align=left;spacingLeft=2;overflow=hidden;fontSize=11;" vertex="1" parent="9iKVfSicNsRhDYt_rUcl-79">
          <mxGeometry x="36" width="87" height="22" as="geometry">
            <mxRectangle width="87" height="22" as="alternateBounds" />
          </mxGeometry>
        </mxCell>
        <mxCell id="9iKVfSicNsRhDYt_rUcl-91" value="Price_Comparison" style="shape=table;startSize=25;container=1;collapsible=0;childLayout=tableLayout;fixedRows=1;rowLines=1;fontStyle=1;align=center;resizeLast=1;" vertex="1" parent="1">
          <mxGeometry x="50" y="409" width="150" height="141" as="geometry" />
        </mxCell>
        <mxCell id="9iKVfSicNsRhDYt_rUcl-92" style="shape=tableRow;horizontal=0;startSize=0;swimlaneHead=0;swimlaneBody=0;fillColor=none;collapsible=0;dropTarget=0;points=[[0,0.5],[1,0.5]];portConstraint=eastwest;top=0;left=0;right=0;bottom=0;" vertex="1" parent="9iKVfSicNsRhDYt_rUcl-91">
          <mxGeometry y="25" width="150" height="20" as="geometry" />
        </mxCell>
        <mxCell id="9iKVfSicNsRhDYt_rUcl-93" value="PK" style="shape=partialRectangle;connectable=0;fillColor=none;top=0;left=0;bottom=0;right=0;align=left;spacingLeft=2;overflow=hidden;fontSize=11;" vertex="1" parent="9iKVfSicNsRhDYt_rUcl-92">
          <mxGeometry width="36" height="20" as="geometry">
            <mxRectangle width="36" height="20" as="alternateBounds" />
          </mxGeometry>
        </mxCell>
        <mxCell id="9iKVfSicNsRhDYt_rUcl-94" value="Price_Comparison_ID" style="shape=partialRectangle;connectable=0;fillColor=none;top=0;left=0;bottom=0;right=0;align=left;spacingLeft=2;overflow=hidden;fontSize=11;" vertex="1" parent="9iKVfSicNsRhDYt_rUcl-92">
          <mxGeometry x="36" width="114" height="20" as="geometry">
            <mxRectangle width="114" height="20" as="alternateBounds" />
          </mxGeometry>
        </mxCell>
        <mxCell id="9iKVfSicNsRhDYt_rUcl-95" style="shape=tableRow;horizontal=0;startSize=0;swimlaneHead=0;swimlaneBody=0;fillColor=none;collapsible=0;dropTarget=0;points=[[0,0.5],[1,0.5]];portConstraint=eastwest;top=0;left=0;right=0;bottom=0;" vertex="1" parent="9iKVfSicNsRhDYt_rUcl-91">
          <mxGeometry y="45" width="150" height="22" as="geometry" />
        </mxCell>
        <mxCell id="9iKVfSicNsRhDYt_rUcl-96" value="FK" style="shape=partialRectangle;connectable=0;fillColor=none;top=0;left=0;bottom=0;right=0;align=left;spacingLeft=2;overflow=hidden;fontSize=11;" vertex="1" parent="9iKVfSicNsRhDYt_rUcl-95">
          <mxGeometry width="36" height="22" as="geometry">
            <mxRectangle width="36" height="22" as="alternateBounds" />
          </mxGeometry>
        </mxCell>
        <mxCell id="9iKVfSicNsRhDYt_rUcl-97" value="Product_ID" style="shape=partialRectangle;connectable=0;fillColor=none;top=0;left=0;bottom=0;right=0;align=left;spacingLeft=2;overflow=hidden;fontSize=11;" vertex="1" parent="9iKVfSicNsRhDYt_rUcl-95">
          <mxGeometry x="36" width="114" height="22" as="geometry">
            <mxRectangle width="114" height="22" as="alternateBounds" />
          </mxGeometry>
        </mxCell>
        <mxCell id="9iKVfSicNsRhDYt_rUcl-98" style="shape=tableRow;horizontal=0;startSize=0;swimlaneHead=0;swimlaneBody=0;fillColor=none;collapsible=0;dropTarget=0;points=[[0,0.5],[1,0.5]];portConstraint=eastwest;top=0;left=0;right=0;bottom=0;" vertex="1" parent="9iKVfSicNsRhDYt_rUcl-91">
          <mxGeometry y="67" width="150" height="22" as="geometry" />
        </mxCell>
        <mxCell id="9iKVfSicNsRhDYt_rUcl-99" value="FK" style="shape=partialRectangle;connectable=0;fillColor=none;top=0;left=0;bottom=0;right=0;align=left;spacingLeft=2;overflow=hidden;fontSize=11;" vertex="1" parent="9iKVfSicNsRhDYt_rUcl-98">
          <mxGeometry width="36" height="22" as="geometry">
            <mxRectangle width="36" height="22" as="alternateBounds" />
          </mxGeometry>
        </mxCell>
        <mxCell id="9iKVfSicNsRhDYt_rUcl-100" value="Store_ID" style="shape=partialRectangle;connectable=0;fillColor=none;top=0;left=0;bottom=0;right=0;align=left;spacingLeft=2;overflow=hidden;fontSize=11;" vertex="1" parent="9iKVfSicNsRhDYt_rUcl-98">
          <mxGeometry x="36" width="114" height="22" as="geometry">
            <mxRectangle width="114" height="22" as="alternateBounds" />
          </mxGeometry>
        </mxCell>
        <mxCell id="9iKVfSicNsRhDYt_rUcl-101" style="shape=tableRow;horizontal=0;startSize=0;swimlaneHead=0;swimlaneBody=0;fillColor=none;collapsible=0;dropTarget=0;points=[[0,0.5],[1,0.5]];portConstraint=eastwest;top=0;left=0;right=0;bottom=0;" vertex="1" parent="9iKVfSicNsRhDYt_rUcl-91">
          <mxGeometry y="89" width="150" height="22" as="geometry" />
        </mxCell>
        <mxCell id="9iKVfSicNsRhDYt_rUcl-102" value="&#xa;          " style="shape=partialRectangle;connectable=0;fillColor=none;top=0;left=0;bottom=0;right=0;align=left;spacingLeft=2;overflow=hidden;fontSize=11;" vertex="1" parent="9iKVfSicNsRhDYt_rUcl-101">
          <mxGeometry width="36" height="22" as="geometry">
            <mxRectangle width="36" height="22" as="alternateBounds" />
          </mxGeometry>
        </mxCell>
        <mxCell id="9iKVfSicNsRhDYt_rUcl-103" value="Price" style="shape=partialRectangle;connectable=0;fillColor=none;top=0;left=0;bottom=0;right=0;align=left;spacingLeft=2;overflow=hidden;fontSize=11;" vertex="1" parent="9iKVfSicNsRhDYt_rUcl-101">
          <mxGeometry x="36" width="114" height="22" as="geometry">
            <mxRectangle width="114" height="22" as="alternateBounds" />
          </mxGeometry>
        </mxCell>
        <mxCell id="9iKVfSicNsRhDYt_rUcl-104" value="" style="shape=tableRow;horizontal=0;startSize=0;swimlaneHead=0;swimlaneBody=0;fillColor=none;collapsible=0;dropTarget=0;points=[[0,0.5],[1,0.5]];portConstraint=eastwest;top=0;left=0;right=0;bottom=0;" vertex="1" parent="9iKVfSicNsRhDYt_rUcl-91">
          <mxGeometry y="111" width="150" height="30" as="geometry" />
        </mxCell>
        <mxCell id="9iKVfSicNsRhDYt_rUcl-105" value="" style="shape=partialRectangle;connectable=0;fillColor=none;top=0;left=0;bottom=0;right=0;editable=1;overflow=hidden;" vertex="1" parent="9iKVfSicNsRhDYt_rUcl-104">
          <mxGeometry width="36" height="30" as="geometry">
            <mxRectangle width="36" height="30" as="alternateBounds" />
          </mxGeometry>
        </mxCell>
        <mxCell id="9iKVfSicNsRhDYt_rUcl-106" value="Date_updated" style="shape=partialRectangle;connectable=0;fillColor=none;top=0;left=0;bottom=0;right=0;align=left;spacingLeft=6;overflow=hidden;" vertex="1" parent="9iKVfSicNsRhDYt_rUcl-104">
          <mxGeometry x="36" width="114" height="30" as="geometry">
            <mxRectangle width="114" height="30" as="alternateBounds" />
          </mxGeometry>
        </mxCell>
        <mxCell id="9iKVfSicNsRhDYt_rUcl-107" value="Price Comparison_Limit" style="shape=table;startSize=30;container=1;collapsible=0;childLayout=tableLayout;fixedRows=1;rowLines=1;fontStyle=1;align=center;resizeLast=1;" vertex="1" parent="1">
          <mxGeometry x="490" y="610" width="190.0000000000001" height="191" as="geometry" />
        </mxCell>
        <mxCell id="9iKVfSicNsRhDYt_rUcl-108" style="shape=tableRow;horizontal=0;startSize=0;swimlaneHead=0;swimlaneBody=0;fillColor=none;collapsible=0;dropTarget=0;points=[[0,0.5],[1,0.5]];portConstraint=eastwest;top=0;left=0;right=0;bottom=0;" vertex="1" parent="9iKVfSicNsRhDYt_rUcl-107">
          <mxGeometry y="30" width="190.0000000000001" height="35" as="geometry" />
        </mxCell>
        <mxCell id="9iKVfSicNsRhDYt_rUcl-109" value="PK" style="shape=partialRectangle;connectable=0;fillColor=none;top=0;left=0;bottom=0;right=0;align=left;spacingLeft=2;overflow=hidden;fontSize=11;" vertex="1" parent="9iKVfSicNsRhDYt_rUcl-108">
          <mxGeometry width="36" height="35" as="geometry">
            <mxRectangle width="36" height="35" as="alternateBounds" />
          </mxGeometry>
        </mxCell>
        <mxCell id="9iKVfSicNsRhDYt_rUcl-110" value="Price_Comparison_Limit_ID" style="shape=partialRectangle;connectable=0;fillColor=none;top=0;left=0;bottom=0;right=0;align=left;spacingLeft=2;overflow=hidden;fontSize=11;" vertex="1" parent="9iKVfSicNsRhDYt_rUcl-108">
          <mxGeometry x="36" width="154.0000000000001" height="35" as="geometry">
            <mxRectangle width="154.0000000000001" height="35" as="alternateBounds" />
          </mxGeometry>
        </mxCell>
        <mxCell id="9iKVfSicNsRhDYt_rUcl-111" style="shape=tableRow;horizontal=0;startSize=0;swimlaneHead=0;swimlaneBody=0;fillColor=none;collapsible=0;dropTarget=0;points=[[0,0.5],[1,0.5]];portConstraint=eastwest;top=0;left=0;right=0;bottom=0;" vertex="1" parent="9iKVfSicNsRhDYt_rUcl-107">
          <mxGeometry y="65" width="190.0000000000001" height="22" as="geometry" />
        </mxCell>
        <mxCell id="9iKVfSicNsRhDYt_rUcl-112" value="FK" style="shape=partialRectangle;connectable=0;fillColor=none;top=0;left=0;bottom=0;right=0;align=left;spacingLeft=2;overflow=hidden;fontSize=11;" vertex="1" parent="9iKVfSicNsRhDYt_rUcl-111">
          <mxGeometry width="36" height="22" as="geometry">
            <mxRectangle width="36" height="22" as="alternateBounds" />
          </mxGeometry>
        </mxCell>
        <mxCell id="9iKVfSicNsRhDYt_rUcl-113" value="Product_ID" style="shape=partialRectangle;connectable=0;fillColor=none;top=0;left=0;bottom=0;right=0;align=left;spacingLeft=2;overflow=hidden;fontSize=11;" vertex="1" parent="9iKVfSicNsRhDYt_rUcl-111">
          <mxGeometry x="36" width="154.0000000000001" height="22" as="geometry">
            <mxRectangle width="154.0000000000001" height="22" as="alternateBounds" />
          </mxGeometry>
        </mxCell>
        <mxCell id="9iKVfSicNsRhDYt_rUcl-114" style="shape=tableRow;horizontal=0;startSize=0;swimlaneHead=0;swimlaneBody=0;fillColor=none;collapsible=0;dropTarget=0;points=[[0,0.5],[1,0.5]];portConstraint=eastwest;top=0;left=0;right=0;bottom=0;" vertex="1" parent="9iKVfSicNsRhDYt_rUcl-107">
          <mxGeometry y="87" width="190.0000000000001" height="22" as="geometry" />
        </mxCell>
        <mxCell id="9iKVfSicNsRhDYt_rUcl-115" value="FK" style="shape=partialRectangle;connectable=0;fillColor=none;top=0;left=0;bottom=0;right=0;align=left;spacingLeft=2;overflow=hidden;fontSize=11;" vertex="1" parent="9iKVfSicNsRhDYt_rUcl-114">
          <mxGeometry width="36" height="22" as="geometry">
            <mxRectangle width="36" height="22" as="alternateBounds" />
          </mxGeometry>
        </mxCell>
        <mxCell id="9iKVfSicNsRhDYt_rUcl-116" value="Store_ID" style="shape=partialRectangle;connectable=0;fillColor=none;top=0;left=0;bottom=0;right=0;align=left;spacingLeft=2;overflow=hidden;fontSize=11;" vertex="1" parent="9iKVfSicNsRhDYt_rUcl-114">
          <mxGeometry x="36" width="154.0000000000001" height="22" as="geometry">
            <mxRectangle width="154.0000000000001" height="22" as="alternateBounds" />
          </mxGeometry>
        </mxCell>
        <mxCell id="9iKVfSicNsRhDYt_rUcl-117" style="shape=tableRow;horizontal=0;startSize=0;swimlaneHead=0;swimlaneBody=0;fillColor=none;collapsible=0;dropTarget=0;points=[[0,0.5],[1,0.5]];portConstraint=eastwest;top=0;left=0;right=0;bottom=0;" vertex="1" parent="9iKVfSicNsRhDYt_rUcl-107">
          <mxGeometry y="109" width="190.0000000000001" height="22" as="geometry" />
        </mxCell>
        <mxCell id="9iKVfSicNsRhDYt_rUcl-118" value="&#xa;          " style="shape=partialRectangle;connectable=0;fillColor=none;top=0;left=0;bottom=0;right=0;align=left;spacingLeft=2;overflow=hidden;fontSize=11;" vertex="1" parent="9iKVfSicNsRhDYt_rUcl-117">
          <mxGeometry width="36" height="22" as="geometry">
            <mxRectangle width="36" height="22" as="alternateBounds" />
          </mxGeometry>
        </mxCell>
        <mxCell id="9iKVfSicNsRhDYt_rUcl-119" value="Max_Qunatity" style="shape=partialRectangle;connectable=0;fillColor=none;top=0;left=0;bottom=0;right=0;align=left;spacingLeft=2;overflow=hidden;fontSize=11;" vertex="1" parent="9iKVfSicNsRhDYt_rUcl-117">
          <mxGeometry x="36" width="154.0000000000001" height="22" as="geometry">
            <mxRectangle width="154.0000000000001" height="22" as="alternateBounds" />
          </mxGeometry>
        </mxCell>
        <mxCell id="9iKVfSicNsRhDYt_rUcl-120" value="" style="shape=tableRow;horizontal=0;startSize=0;swimlaneHead=0;swimlaneBody=0;fillColor=none;collapsible=0;dropTarget=0;points=[[0,0.5],[1,0.5]];portConstraint=eastwest;top=0;left=0;right=0;bottom=0;" vertex="1" parent="9iKVfSicNsRhDYt_rUcl-107">
          <mxGeometry y="131" width="190.0000000000001" height="30" as="geometry" />
        </mxCell>
        <mxCell id="9iKVfSicNsRhDYt_rUcl-121" value="" style="shape=partialRectangle;connectable=0;fillColor=none;top=0;left=0;bottom=0;right=0;editable=1;overflow=hidden;" vertex="1" parent="9iKVfSicNsRhDYt_rUcl-120">
          <mxGeometry width="36" height="30" as="geometry">
            <mxRectangle width="36" height="30" as="alternateBounds" />
          </mxGeometry>
        </mxCell>
        <mxCell id="9iKVfSicNsRhDYt_rUcl-122" value="Max_Price" style="shape=partialRectangle;connectable=0;fillColor=none;top=0;left=0;bottom=0;right=0;align=left;spacingLeft=6;overflow=hidden;" vertex="1" parent="9iKVfSicNsRhDYt_rUcl-120">
          <mxGeometry x="36" width="154.0000000000001" height="30" as="geometry">
            <mxRectangle width="154.0000000000001" height="30" as="alternateBounds" />
          </mxGeometry>
        </mxCell>
        <mxCell id="9iKVfSicNsRhDYt_rUcl-124" value="" style="shape=tableRow;horizontal=0;startSize=0;swimlaneHead=0;swimlaneBody=0;fillColor=none;collapsible=0;dropTarget=0;points=[[0,0.5],[1,0.5]];portConstraint=eastwest;top=0;left=0;right=0;bottom=0;" vertex="1" parent="9iKVfSicNsRhDYt_rUcl-107">
          <mxGeometry y="161" width="190.0000000000001" height="30" as="geometry" />
        </mxCell>
        <mxCell id="9iKVfSicNsRhDYt_rUcl-125" value="" style="shape=partialRectangle;connectable=0;fillColor=none;top=0;left=0;bottom=0;right=0;editable=1;overflow=hidden;" vertex="1" parent="9iKVfSicNsRhDYt_rUcl-124">
          <mxGeometry width="36" height="30" as="geometry">
            <mxRectangle width="36" height="30" as="alternateBounds" />
          </mxGeometry>
        </mxCell>
        <mxCell id="9iKVfSicNsRhDYt_rUcl-126" value="Last_Updated" style="shape=partialRectangle;connectable=0;fillColor=none;top=0;left=0;bottom=0;right=0;align=left;spacingLeft=6;overflow=hidden;" vertex="1" parent="9iKVfSicNsRhDYt_rUcl-124">
          <mxGeometry x="36" width="154.0000000000001" height="30" as="geometry">
            <mxRectangle width="154.0000000000001" height="30" as="alternateBounds" />
          </mxGeometry>
        </mxCell>
      </root>
    </mxGraphModel>
  </diagram>
</mxfile>
